<svg xmlns="http://www.w3.org/2000/svg" viewBox="0 0 1280 998" font-family="sans-serif">
<rect width="1280" height="998" fill="#FAF6EF"/>
<text x="24" y="34" font-size="20" font-weight="800" fill="#2B2620" font-family="Century Gothic, sans-serif">Tindalos · 模组《模组《留地不留头（To Hell or Connaught）》》剧本结构</text>
<text x="24" y="56" font-size="12" fill="#8A7F6D">2 幕 · 14 场景 · 42 事件 · 3 NPC · 2 线索 · 关系 3 条</text>
<rect x="24" y="70" width="300" height="58" rx="6" fill="#FAF6EF" stroke="#E5DCC8" stroke-width="1"/>
<rect x="24" y="70" width="300" height="5" fill="#D64545"/>
<text x="34" y="100" font-size="13" font-weight="700" fill="#2B2620" font-family="Century Gothic, sans-serif">德罗赫达的阴影</text>
<text x="34" y="118" font-size="10" fill="#5C5345" font-family="sans-serif">1649年9月11日，克伦威尔军队攻陷德罗赫达后，PC们被召至总部接</text>
<rect x="24" y="142" width="300" height="62" rx="6" fill="#FAF6EF" stroke="#E5DCC8" stroke-width="1"/>
<rect x="24" y="142" width="300" height="5" fill="#E8620C"/>
<text x="34" y="172" font-size="13" font-weight="700" fill="#2B2620" font-family="Century Gothic, sans-serif">克伦威尔的命令</text>
<text x="34" y="190" font-size="10" fill="#5C5345" font-family="sans-serif">1649年9月11日，清晨 · 德罗赫达镇，克伦威尔总部（德罗赫达庄</text>
<rect x="38" y="212" width="87" height="40" rx="6" fill="#FAF6EF" stroke="#E5DCC8" stroke-width="1"/>
<rect x="38" y="212" width="87" height="5" fill="#6B7A55"/>
<text x="48" y="242" font-size="13" font-weight="700" fill="#2B2620" font-family="Century Gothic, sans-serif">#1 信使传召</text>
<rect x="129" y="212" width="87" height="40" rx="6" fill="#FAF6EF" stroke="#E5DCC8" stroke-width="1"/>
<rect x="129" y="212" width="87" height="5" fill="#6B7A55"/>
<text x="139" y="242" font-size="13" font-weight="700" fill="#2B2620" font-family="Century Gothic, sans-serif">#2 克伦威尔的命令</text>
<rect x="219" y="212" width="87" height="40" rx="6" fill="#FAF6EF" stroke="#E5DCC8" stroke-width="1"/>
<rect x="219" y="212" width="87" height="5" fill="#6B7A55"/>
<text x="229" y="242" font-size="13" font-weight="700" fill="#2B2620" font-family="Century Gothic, sans-serif">#3 领命出发</text>
<line x1="324" y1="172" x2="340" y2="172" stroke="#D64545" stroke-width="2"/>
<rect x="24" y="262" width="300" height="62" rx="6" fill="#FAF6EF" stroke="#E5DCC8" stroke-width="1"/>
<rect x="24" y="262" width="300" height="5" fill="#E8620C"/>
<text x="34" y="292" font-size="13" font-weight="700" fill="#2B2620" font-family="Century Gothic, sans-serif">仓库中的尸体</text>
<text x="34" y="310" font-size="10" fill="#5C5345" font-family="sans-serif">1649年9月11日，午后 · 德罗赫达，阿斯顿爵士的仓库（原圣塞莱</text>
<rect x="38" y="332" width="87" height="40" rx="6" fill="#FAF6EF" stroke="#E5DCC8" stroke-width="1"/>
<rect x="38" y="332" width="87" height="5" fill="#6B7A55"/>
<text x="48" y="362" font-size="13" font-weight="700" fill="#2B2620" font-family="Century Gothic, sans-serif">#1 进入仓库</text>
<rect x="129" y="332" width="87" height="40" rx="6" fill="#FAF6EF" stroke="#E5DCC8" stroke-width="1"/>
<rect x="129" y="332" width="87" height="5" fill="#6B7A55"/>
<text x="139" y="362" font-size="13" font-weight="700" fill="#2B2620" font-family="Century Gothic, sans-serif">#2 搜查仓库与发现祭坛</text>
<rect x="219" y="332" width="87" height="40" rx="6" fill="#FAF6EF" stroke="#E5DCC8" stroke-width="1"/>
<rect x="219" y="332" width="87" height="5" fill="#6B7A55"/>
<text x="229" y="362" font-size="13" font-weight="700" fill="#2B2620" font-family="Century Gothic, sans-serif">#3 发现竖井与真相的入口</text>
<rect x="24" y="382" width="300" height="62" rx="6" fill="#FAF6EF" stroke="#E5DCC8" stroke-width="1"/>
<rect x="24" y="382" width="300" height="5" fill="#E8620C"/>
<text x="34" y="412" font-size="13" font-weight="700" fill="#2B2620" font-family="Century Gothic, sans-serif">地下神庙</text>
<text x="34" y="430" font-size="10" fill="#5C5345" font-family="sans-serif">1649年9月11日，午后 · 德罗赫达镇，阿斯顿爵士仓库（原圣塞莱</text>
<rect x="38" y="452" width="87" height="40" rx="6" fill="#FAF6EF" stroke="#E5DCC8" stroke-width="1"/>
<rect x="38" y="452" width="87" height="5" fill="#6B7A55"/>
<text x="48" y="482" font-size="13" font-weight="700" fill="#2B2620" font-family="Century Gothic, sans-serif">#1 踏入竖井</text>
<rect x="129" y="452" width="87" height="40" rx="6" fill="#FAF6EF" stroke="#E5DCC8" stroke-width="1"/>
<rect x="129" y="452" width="87" height="5" fill="#6B7A55"/>
<text x="139" y="482" font-size="13" font-weight="700" fill="#2B2620" font-family="Century Gothic, sans-serif">#2 墙上的古代壁画</text>
<rect x="219" y="452" width="87" height="40" rx="6" fill="#FAF6EF" stroke="#E5DCC8" stroke-width="1"/>
<rect x="219" y="452" width="87" height="5" fill="#6B7A55"/>
<text x="229" y="482" font-size="13" font-weight="700" fill="#2B2620" font-family="Century Gothic, sans-serif">#3 神庙的真相初现</text>
<rect x="24" y="502" width="300" height="62" rx="6" fill="#FAF6EF" stroke="#E5DCC8" stroke-width="1"/>
<rect x="24" y="502" width="300" height="5" fill="#E8620C"/>
<text x="34" y="532" font-size="13" font-weight="700" fill="#2B2620" font-family="Century Gothic, sans-serif">医院中的目击者</text>
<text x="34" y="550" font-size="10" fill="#5C5345" font-family="sans-serif">1649年9月11日，午后 · 德罗赫达临时军事医院（原圣约翰大教堂</text>
<rect x="38" y="572" width="87" height="40" rx="6" fill="#FAF6EF" stroke="#E5DCC8" stroke-width="1"/>
<rect x="38" y="572" width="87" height="5" fill="#6B7A55"/>
<text x="48" y="602" font-size="13" font-weight="700" fill="#2B2620" font-family="Century Gothic, sans-serif">#1 进入地下室</text>
<rect x="129" y="572" width="87" height="40" rx="6" fill="#FAF6EF" stroke="#E5DCC8" stroke-width="1"/>
<rect x="129" y="572" width="87" height="5" fill="#6B7A55"/>
<text x="139" y="602" font-size="13" font-weight="700" fill="#2B2620" font-family="Century Gothic, sans-serif">#2 询问奥唐奈</text>
<rect x="219" y="572" width="87" height="40" rx="6" fill="#FAF6EF" stroke="#E5DCC8" stroke-width="1"/>
<rect x="219" y="572" width="87" height="5" fill="#6B7A55"/>
<text x="229" y="602" font-size="13" font-weight="700" fill="#2B2620" font-family="Century Gothic, sans-serif">#3 奥唐奈之死与蛇群涌现</text>
<rect x="24" y="622" width="300" height="62" rx="6" fill="#FAF6EF" stroke="#E5DCC8" stroke-width="1"/>
<rect x="24" y="622" width="300" height="5" fill="#E8620C"/>
<text x="34" y="652" font-size="13" font-weight="700" fill="#2B2620" font-family="Century Gothic, sans-serif">市政厅的旧档</text>
<text x="34" y="670" font-size="10" fill="#5C5345" font-family="sans-serif">1649 年 9 月 11 日，午后 · 德罗赫达镇市政厅</text>
<rect x="38" y="692" width="87" height="40" rx="6" fill="#FAF6EF" stroke="#E5DCC8" stroke-width="1"/>
<rect x="38" y="692" width="87" height="5" fill="#6B7A55"/>
<text x="48" y="722" font-size="13" font-weight="700" fill="#2B2620" font-family="Century Gothic, sans-serif">#1 踏入市政厅</text>
<rect x="129" y="692" width="87" height="40" rx="6" fill="#FAF6EF" stroke="#E5DCC8" stroke-width="1"/>
<rect x="129" y="692" width="87" height="5" fill="#6B7A55"/>
<text x="139" y="722" font-size="13" font-weight="700" fill="#2B2620" font-family="Century Gothic, sans-serif">#2 初步检索与建筑来历</text>
<rect x="219" y="692" width="87" height="40" rx="6" fill="#FAF6EF" stroke="#E5DCC8" stroke-width="1"/>
<rect x="219" y="692" width="87" height="5" fill="#6B7A55"/>
<text x="229" y="722" font-size="13" font-weight="700" fill="#2B2620" font-family="Century Gothic, sans-serif">#3 深挖旧档</text>
<rect x="24" y="742" width="300" height="62" rx="6" fill="#FAF6EF" stroke="#E5DCC8" stroke-width="1"/>
<rect x="24" y="742" width="300" height="5" fill="#E8620C"/>
<text x="34" y="772" font-size="13" font-weight="700" fill="#2B2620" font-family="Century Gothic, sans-serif">与卡文迪什的晚餐</text>
<text x="34" y="790" font-size="10" fill="#5C5345" font-family="sans-serif">1649年9月11日，傍晚至深夜 · 德罗赫达庄园，卡文迪什上校的私</text>
<rect x="38" y="812" width="87" height="40" rx="6" fill="#FAF6EF" stroke="#E5DCC8" stroke-width="1"/>
<rect x="38" y="812" width="87" height="5" fill="#6B7A55"/>
<text x="48" y="842" font-size="13" font-weight="700" fill="#2B2620" font-family="Century Gothic, sans-serif">#1 受邀赴宴</text>
<rect x="129" y="812" width="87" height="40" rx="6" fill="#FAF6EF" stroke="#E5DCC8" stroke-width="1"/>
<rect x="129" y="812" width="87" height="5" fill="#6B7A55"/>
<text x="139" y="842" font-size="13" font-weight="700" fill="#2B2620" font-family="Century Gothic, sans-serif">#2 套取调查进展</text>
<rect x="219" y="812" width="87" height="40" rx="6" fill="#FAF6EF" stroke="#E5DCC8" stroke-width="1"/>
<rect x="219" y="812" width="87" height="5" fill="#6B7A55"/>
<text x="229" y="842" font-size="13" font-weight="700" fill="#2B2620" font-family="Century Gothic, sans-serif">#3 晚宴收场：警告与疑虑</text>
<rect x="24" y="862" width="300" height="62" rx="6" fill="#FAF6EF" stroke="#E5DCC8" stroke-width="1"/>
<rect x="24" y="862" width="300" height="5" fill="#E8620C"/>
<text x="34" y="892" font-size="13" font-weight="700" fill="#2B2620" font-family="Century Gothic, sans-serif">抹大拉的玛利亚塔密会</text>
<text x="34" y="910" font-size="10" fill="#5C5345" font-family="sans-serif">1649 年 9 月 11 日午夜 · 德罗赫达，抹大拉的玛利亚塔（</text>
<rect x="38" y="932" width="87" height="40" rx="6" fill="#FAF6EF" stroke="#E5DCC8" stroke-width="1"/>
<rect x="38" y="932" width="87" height="5" fill="#6B7A55"/>
<text x="48" y="962" font-size="13" font-weight="700" fill="#2B2620" font-family="Century Gothic, sans-serif">#1 午夜赴约</text>
<rect x="129" y="932" width="87" height="40" rx="6" fill="#FAF6EF" stroke="#E5DCC8" stroke-width="1"/>
<rect x="129" y="932" width="87" height="5" fill="#6B7A55"/>
<text x="139" y="962" font-size="13" font-weight="700" fill="#2B2620" font-family="Century Gothic, sans-serif">#2 与多米尼克神父重逢</text>
<rect x="219" y="932" width="87" height="40" rx="6" fill="#FAF6EF" stroke="#E5DCC8" stroke-width="1"/>
<rect x="219" y="932" width="87" height="5" fill="#6B7A55"/>
<text x="229" y="962" font-size="13" font-weight="700" fill="#2B2620" font-family="Century Gothic, sans-serif">#3 接受新使命</text>
<rect x="340" y="70" width="300" height="58" rx="6" fill="#FAF6EF" stroke="#E5DCC8" stroke-width="1"/>
<rect x="340" y="70" width="300" height="5" fill="#D64545"/>
<text x="350" y="100" font-size="13" font-weight="700" fill="#2B2620" font-family="Century Gothic, sans-serif">伟大的母亲</text>
<text x="350" y="118" font-size="10" fill="#5C5345" font-family="sans-serif">PC们离开德罗赫达前往都柏林附近的修道院，途中遭遇退化蛇人伏击。抵达</text>
<rect x="340" y="142" width="300" height="62" rx="6" fill="#FAF6EF" stroke="#E5DCC8" stroke-width="1"/>
<rect x="340" y="142" width="300" height="5" fill="#E8620C"/>
<text x="350" y="172" font-size="13" font-weight="700" fill="#2B2620" font-family="Century Gothic, sans-serif">蛇人伏击</text>
<text x="350" y="190" font-size="10" fill="#5C5345" font-family="sans-serif">1649年9月，出发前往都柏林的第一天夜晚 · 德罗赫达通往都柏林沿</text>
<rect x="354" y="212" width="87" height="40" rx="6" fill="#FAF6EF" stroke="#E5DCC8" stroke-width="1"/>
<rect x="354" y="212" width="87" height="5" fill="#6B7A55"/>
<text x="364" y="242" font-size="13" font-weight="700" fill="#2B2620" font-family="Century Gothic, sans-serif">#1 夜幕降临，营地扎定</text>
<rect x="445" y="212" width="87" height="40" rx="6" fill="#FAF6EF" stroke="#E5DCC8" stroke-width="1"/>
<rect x="445" y="212" width="87" height="5" fill="#6B7A55"/>
<text x="455" y="242" font-size="13" font-weight="700" fill="#2B2620" font-family="Century Gothic, sans-serif">#2 蛇人突袭</text>
<rect x="535" y="212" width="87" height="40" rx="6" fill="#FAF6EF" stroke="#E5DCC8" stroke-width="1"/>
<rect x="535" y="212" width="87" height="5" fill="#6B7A55"/>
<text x="545" y="242" font-size="13" font-weight="700" fill="#2B2620" font-family="Century Gothic, sans-serif">#3 击退蛇人，发现护身符</text>
<rect x="340" y="262" width="300" height="62" rx="6" fill="#FAF6EF" stroke="#E5DCC8" stroke-width="1"/>
<rect x="340" y="262" width="300" height="5" fill="#E8620C"/>
<text x="350" y="292" font-size="13" font-weight="700" fill="#2B2620" font-family="Century Gothic, sans-serif">圣帕特里克兄弟会修道院</text>
<text x="350" y="310" font-size="10" fill="#5C5345" font-family="sans-serif">1649年9月中旬，午后 · 都柏林附近几英里外的圣帕特里克兄弟会修</text>
<rect x="354" y="332" width="87" height="40" rx="6" fill="#FAF6EF" stroke="#E5DCC8" stroke-width="1"/>
<rect x="354" y="332" width="87" height="5" fill="#6B7A55"/>
<text x="364" y="362" font-size="13" font-weight="700" fill="#2B2620" font-family="Century Gothic, sans-serif">#1 抵达修道院</text>
<rect x="445" y="332" width="87" height="40" rx="6" fill="#FAF6EF" stroke="#E5DCC8" stroke-width="1"/>
<rect x="445" y="332" width="87" height="5" fill="#6B7A55"/>
<text x="455" y="362" font-size="13" font-weight="700" fill="#2B2620" font-family="Century Gothic, sans-serif">#2 弥撒中的恐怖事件</text>
<rect x="535" y="332" width="87" height="40" rx="6" fill="#FAF6EF" stroke="#E5DCC8" stroke-width="1"/>
<rect x="535" y="332" width="87" height="5" fill="#6B7A55"/>
<text x="545" y="362" font-size="13" font-weight="700" fill="#2B2620" font-family="Century Gothic, sans-serif">#3 约翰神父的告诫与图书</text>
<rect x="340" y="382" width="300" height="62" rx="6" fill="#FAF6EF" stroke="#E5DCC8" stroke-width="1"/>
<rect x="340" y="382" width="300" height="5" fill="#E8620C"/>
<text x="350" y="412" font-size="13" font-weight="700" fill="#2B2620" font-family="Century Gothic, sans-serif">弥撒中的恐怖</text>
<text x="350" y="430" font-size="10" fill="#5C5345" font-family="sans-serif">1649 年 9 月中旬，清晨弥撒时分 · 圣帕特里克兄弟会修道院（</text>
<rect x="354" y="452" width="87" height="40" rx="6" fill="#FAF6EF" stroke="#E5DCC8" stroke-width="1"/>
<rect x="354" y="452" width="87" height="5" fill="#6B7A55"/>
<text x="364" y="482" font-size="13" font-weight="700" fill="#2B2620" font-family="Century Gothic, sans-serif">#1 踏入修道院</text>
<rect x="445" y="452" width="87" height="40" rx="6" fill="#FAF6EF" stroke="#E5DCC8" stroke-width="1"/>
<rect x="445" y="452" width="87" height="5" fill="#6B7A55"/>
<text x="455" y="482" font-size="13" font-weight="700" fill="#2B2620" font-family="Century Gothic, sans-serif">#2 弥撒中的异变</text>
<rect x="535" y="452" width="87" height="40" rx="6" fill="#FAF6EF" stroke="#E5DCC8" stroke-width="1"/>
<rect x="535" y="452" width="87" height="5" fill="#6B7A55"/>
<text x="545" y="482" font-size="13" font-weight="700" fill="#2B2620" font-family="Century Gothic, sans-serif">#3 蛇群散去与残余</text>
<rect x="340" y="502" width="300" height="62" rx="6" fill="#FAF6EF" stroke="#E5DCC8" stroke-width="1"/>
<rect x="340" y="502" width="300" height="5" fill="#E8620C"/>
<text x="350" y="532" font-size="13" font-weight="700" fill="#2B2620" font-family="Century Gothic, sans-serif">图书馆的秘密</text>
<text x="350" y="550" font-size="10" fill="#5C5345" font-family="sans-serif">1649年9月，深夜 · 圣帕特里克兄弟会修道院（都柏林附近）的秘密</text>
<rect x="354" y="572" width="87" height="40" rx="6" fill="#FAF6EF" stroke="#E5DCC8" stroke-width="1"/>
<rect x="354" y="572" width="87" height="5" fill="#6B7A55"/>
<text x="364" y="602" font-size="13" font-weight="700" fill="#2B2620" font-family="Century Gothic, sans-serif">#1 进入秘密图书馆</text>
<rect x="445" y="572" width="87" height="40" rx="6" fill="#FAF6EF" stroke="#E5DCC8" stroke-width="1"/>
<rect x="445" y="572" width="87" height="5" fill="#6B7A55"/>
<text x="455" y="602" font-size="13" font-weight="700" fill="#2B2620" font-family="Century Gothic, sans-serif">#2 阅读文献，揭示缪楚的</text>
<rect x="535" y="572" width="87" height="40" rx="6" fill="#FAF6EF" stroke="#E5DCC8" stroke-width="1"/>
<rect x="535" y="572" width="87" height="5" fill="#6B7A55"/>
<text x="545" y="602" font-size="13" font-weight="700" fill="#2B2620" font-family="Century Gothic, sans-serif">#3 真相大白，指向石阵祭</text>
<rect x="340" y="622" width="300" height="62" rx="6" fill="#FAF6EF" stroke="#E5DCC8" stroke-width="1"/>
<rect x="340" y="622" width="300" height="5" fill="#E8620C"/>
<text x="350" y="652" font-size="13" font-weight="700" fill="#2B2620" font-family="Century Gothic, sans-serif">堤坝下的发现</text>
<text x="350" y="670" font-size="10" fill="#5C5345" font-family="sans-serif">1649年9月，德罗赫达被攻陷后的数日内 · 博因河畔堤坝附近，仓库</text>
<rect x="354" y="692" width="87" height="40" rx="6" fill="#FAF6EF" stroke="#E5DCC8" stroke-width="1"/>
<rect x="354" y="692" width="87" height="5" fill="#6B7A55"/>
<text x="364" y="722" font-size="13" font-weight="700" fill="#2B2620" font-family="Century Gothic, sans-serif">#1 堤坝下的异样</text>
<rect x="445" y="692" width="87" height="40" rx="6" fill="#FAF6EF" stroke="#E5DCC8" stroke-width="1"/>
<rect x="445" y="692" width="87" height="5" fill="#6B7A55"/>
<text x="455" y="722" font-size="13" font-weight="700" fill="#2B2620" font-family="Century Gothic, sans-serif">#2 辨认尸体</text>
<rect x="535" y="692" width="87" height="40" rx="6" fill="#FAF6EF" stroke="#E5DCC8" stroke-width="1"/>
<rect x="535" y="692" width="87" height="5" fill="#6B7A55"/>
<text x="545" y="722" font-size="13" font-weight="700" fill="#2B2620" font-family="Century Gothic, sans-serif">#3 真相的裂缝</text>
<rect x="340" y="742" width="300" height="62" rx="6" fill="#FAF6EF" stroke="#E5DCC8" stroke-width="1"/>
<rect x="340" y="742" width="300" height="5" fill="#E8620C"/>
<text x="350" y="772" font-size="13" font-weight="700" fill="#2B2620" font-family="Century Gothic, sans-serif">卡文迪什的房间</text>
<text x="350" y="790" font-size="10" fill="#5C5345" font-family="sans-serif">1649年9月11日，深夜 · 德罗赫达庄园，卡文迪什上校的私人房间</text>
<rect x="354" y="812" width="87" height="40" rx="6" fill="#FAF6EF" stroke="#E5DCC8" stroke-width="1"/>
<rect x="354" y="812" width="87" height="5" fill="#6B7A55"/>
<text x="364" y="842" font-size="13" font-weight="700" fill="#2B2620" font-family="Century Gothic, sans-serif">#1 踏入上校的房间</text>
<rect x="445" y="812" width="87" height="40" rx="6" fill="#FAF6EF" stroke="#E5DCC8" stroke-width="1"/>
<rect x="445" y="812" width="87" height="5" fill="#6B7A55"/>
<text x="455" y="842" font-size="13" font-weight="700" fill="#2B2620" font-family="Century Gothic, sans-serif">#2 铜罐上的盖尔语浮雕</text>
<rect x="535" y="812" width="87" height="40" rx="6" fill="#FAF6EF" stroke="#E5DCC8" stroke-width="1"/>
<rect x="535" y="812" width="87" height="5" fill="#6B7A55"/>
<text x="545" y="842" font-size="13" font-weight="700" fill="#2B2620" font-family="Century Gothic, sans-serif">#3 伟大母亲的回响</text>
<rect x="340" y="862" width="300" height="62" rx="6" fill="#FAF6EF" stroke="#E5DCC8" stroke-width="1"/>
<rect x="340" y="862" width="300" height="5" fill="#E8620C"/>
<text x="350" y="892" font-size="13" font-weight="700" fill="#2B2620" font-family="Century Gothic, sans-serif">祭祀场地的最终对决</text>
<text x="350" y="910" font-size="10" fill="#5C5345" font-family="sans-serif">1649 年 9 月某日，黄昏时分 · 德罗赫达以东几英里森林中的祭</text>
<rect x="354" y="932" width="87" height="40" rx="6" fill="#FAF6EF" stroke="#E5DCC8" stroke-width="1"/>
<rect x="354" y="932" width="87" height="5" fill="#6B7A55"/>
<text x="364" y="962" font-size="13" font-weight="700" fill="#2B2620" font-family="Century Gothic, sans-serif">#1 抵达祭祀场地</text>
<rect x="445" y="932" width="87" height="40" rx="6" fill="#FAF6EF" stroke="#E5DCC8" stroke-width="1"/>
<rect x="445" y="932" width="87" height="5" fill="#6B7A55"/>
<text x="455" y="962" font-size="13" font-weight="700" fill="#2B2620" font-family="Century Gothic, sans-serif">#2 缪楚的召唤仪式与囚犯</text>
<rect x="535" y="932" width="87" height="40" rx="6" fill="#FAF6EF" stroke="#E5DCC8" stroke-width="1"/>
<rect x="535" y="932" width="87" height="5" fill="#6B7A55"/>
<text x="545" y="962" font-size="13" font-weight="700" fill="#2B2620" font-family="Century Gothic, sans-serif">#3 最终对决：阻止伟大母</text>
<text x="676" y="86" font-size="13" font-weight="800" fill="#3E4A5A">NPC（3）</text>
<rect x="676" y="96" width="200" height="28" rx="6" fill="#FAF6EF" stroke="#E5DCC8" stroke-width="1"/>
<rect x="676" y="96" width="200" height="5" fill="#3E4A5A"/>
<text x="686" y="126" font-size="13" font-weight="700" fill="#2B2620" font-family="Century Gothic, sans-serif">威廉·哈灵顿</text>
<text x="686" y="144" font-size="10" fill="#5C5345" font-family="sans-serif">老兵</text>
<rect x="676" y="130" width="200" height="28" rx="6" fill="#FAF6EF" stroke="#E5DCC8" stroke-width="1"/>
<rect x="676" y="130" width="200" height="5" fill="#3E4A5A"/>
<text x="686" y="160" font-size="13" font-weight="700" fill="#2B2620" font-family="Century Gothic, sans-serif">塞缪尔·格雷夫斯</text>
<text x="686" y="178" font-size="10" fill="#5C5345" font-family="sans-serif">学者</text>
<rect x="676" y="164" width="200" height="28" rx="6" fill="#FAF6EF" stroke="#E5DCC8" stroke-width="1"/>
<rect x="676" y="164" width="200" height="5" fill="#3E4A5A"/>
<text x="686" y="194" font-size="13" font-weight="700" fill="#2B2620" font-family="Century Gothic, sans-serif">托马斯·奥康纳</text>
<text x="686" y="212" font-size="10" fill="#5C5345" font-family="sans-serif">内奸</text>
<text x="676" y="208" font-size="13" font-weight="800" fill="#4A3B28">线索（2）</text>
<rect x="676" y="220" width="200" height="24" rx="6" fill="#FAF6EF" stroke="#E5DCC8" stroke-width="1"/>
<rect x="676" y="220" width="200" height="5" fill="#4A3B28"/>
<text x="686" y="250" font-size="13" font-weight="700" fill="#2B2620" font-family="Century Gothic, sans-serif">德罗赫达的阴影的关键线索</text>
<rect x="676" y="250" width="200" height="24" rx="6" fill="#FAF6EF" stroke="#E5DCC8" stroke-width="1"/>
<rect x="676" y="250" width="200" height="5" fill="#4A3B28"/>
<text x="686" y="280" font-size="13" font-weight="700" fill="#2B2620" font-family="Century Gothic, sans-serif">伟大的母亲的关键线索</text>
</svg>